<svg xmlns="http://www.w3.org/2000/svg" width="512" height="512" fill="none"><style><![CDATA[.B{color-interpolation-filters:sRGB}.C{flood-opacity:0}]]></style><g clip-path="url(#F)"><g clip-path="url(#G)"><mask id="A" maskUnits="userSpaceOnUse" x="0" y="0" width="512" height="512"><path d="M0 0H512V512H0V0Z" fill="#fff"/></mask><g mask="url(#A)"><path d="M0 0H512V512H0V0Z" fill="#54fff5"/><g filter="url(#B)"><path d="M27 397.2C-58.7 638 399.3 570 639 506c245.3-81.4 75.8-440.3-100.2-448.2s21.8 166-127.6 215.6S134 96 27 397.2z" fill="#fff"/></g><g filter="url(#C)"><path d="M171-91.6C126-214.4-33.8-48-108.2 50.5-179 157.7 6 250.3 78.6 200s-63-60-20-125.3S227.2 61.7 171-91.6z" fill="#00fff0" fill-opacity=".7"/></g><g filter="url(#D)"><path d="M193 450.8c-61.3-206-325-97.6-449.4-17.5C-376 528-92 800.7 25.7 786.7S-68.8 654 4 596.3s265.6 112.2 189-145.5z" fill="#9d81ff"/></g><g filter="url(#E)"><path d="M564.2-214.7C432-372 243-242 165-157.2c-68.3 96 283.7 271.7 381.4 241.6S413-8 454.6-66.6s274.8 48.6 109.6-148v-.1z" fill="#4d94ff"/></g><path fill-rule="evenodd" d="M186.4 305.7h87l-99-99.6 100.2-99.6L302 80h-90.3l-115 115.6c-5.8 5.8-5.8 15.2.1 21l89.6 89v.1zm52.3-99.3l99 99.6-100.2 99.6L210 432h90.3l115-115.5c5.8-5.8 5.8-15.2-.1-21l-89.6-89h-87l.1-.1z" fill="#000"/></g></g></g><defs><filter id="B" x="-180.5" y="-139.5" width="1139.2" height="902.9" filterUnits="userSpaceOnUse" class="B"><feFlood class="C"/><feBlend in="SourceGraphic"/><feGaussianBlur stdDeviation="98.5"/></filter><filter id="C" x="-321.1" y="-332.1" width="703.3" height="743.1" filterUnits="userSpaceOnUse" class="B"><feFlood class="C"/><feBlend in="SourceGraphic"/><feGaussianBlur stdDeviation="98.5"/></filter><filter id="D" x="-482.2" y="135.2" width="889.9" height="849" filterUnits="userSpaceOnUse" class="B"><feFlood class="C"/><feBlend in="SourceGraphic"/><feGaussianBlur stdDeviation="98.5"/></filter><filter id="E" x="-40.7" y="-485.6" width="860.4" height="770.4" filterUnits="userSpaceOnUse" class="B"><feFlood class="C"/><feBlend in="SourceGraphic"/><feGaussianBlur stdDeviation="98.5"/></filter><clipPath id="F"><rect width="512" height="512" rx="100" fill="#fff"/></clipPath><clipPath id="G"><path fill="#fff" d="M0 0h512v512H0z"/></clipPath></defs></svg>
