<svg xmlns="http://www.w3.org/2000/svg" width="54" height="61" fill="none"><path fill-rule="evenodd" d="M53.661 17.14v3.063a1.69 1.69 0 0 1-.225.843 1.68 1.68 0 0 1-.614.617l-9.828 5.701 8.776 5.077a3.78 3.78 0 0 1 1.382 1.389c.331.577.505 1.231.505 1.898v8.168c.001.666-.173 1.321-.504 1.899s-.808 1.057-1.382 1.39L28.683 60.497a3.76 3.76 0 0 1-3.774 0l-7.547-4.384a.84.84 0 0 1-.307-.308c-.074-.128-.112-.273-.112-.422s.039-.293.112-.422a.84.84 0 0 1 .307-.308l24.947-14.429a.42.42 0 0 0 .153-.154c.037-.064.056-.136.056-.21s-.019-.146-.056-.21a.42.42 0 0 0-.153-.154l-9.264-5.379a1.67 1.67 0 0 0-1.677 0L6.021 48.783c-.191.111-.408.169-.629.169s-.438-.058-.629-.169l-2.868-1.65a3.78 3.78 0 0 1-1.383-1.392c-.331-.578-.505-1.234-.503-1.901V40.5a1.27 1.27 0 0 1 .168-.633 1.26 1.26 0 0 1 .461-.463l36.324-20.981a.42.42 0 0 0 .153-.154c.037-.064.056-.137.056-.21s-.019-.146-.056-.21a.42.42 0 0 0-.153-.154l-9.281-5.395a1.67 1.67 0 0 0-1.677 0L1.266 26.602c-.128.074-.272.113-.42.113s-.292-.039-.42-.113a.84.84 0 0 1-.307-.309c-.074-.128-.112-.274-.112-.422V17.1c-.001-.666.173-1.321.504-1.899a3.78 3.78 0 0 1 1.382-1.39L24.976.501a3.76 3.76 0 0 1 3.774 0l23.033 13.35c.573.334 1.048.814 1.378 1.391s.502 1.232.501 1.897z" fill="#7524f9"/></svg>
