<svg xmlns="http://www.w3.org/2000/svg" width="400" height="400" fill="#4a21ef"><path d="M175.358 0a45.9 45.9 0 0 0-32.457 13.445L7.682 148.666C2.561 153.787 0 160.5 0 167.213s2.561 13.425 7.682 18.547l88.613 88.613V117.495c0-11.707 9.417-21.198 21.124-21.198h186.282L399.996.001 175.358 0zM96.3 303.703h186.208c11.707 0 21.198-9.491 21.198-21.199V125.626l88.613 88.614c5.121 5.122 7.682 11.834 7.682 18.547s-2.561 13.425-7.682 18.547l-135.22 135.221A45.9 45.9 0 0 1 224.642 400L.004 399.998 96.3 303.703z"/></svg>
