<svg xmlns="http://www.w3.org/2000/svg" width="300" height="185"><path d="M61.439 36.256c48.911-47.888 128.212-47.888 177.123 0l5.887 5.763a6.04 6.04 0 0 1 0 8.671l-20.137 19.716a3.18 3.18 0 0 1-4.428 0l-8.101-7.931c-34.122-33.408-89.444-33.408-123.566 0l-8.675 8.494a3.18 3.18 0 0 1-4.428 0L54.978 51.253a6.04 6.04 0 0 1 0-8.671l6.461-6.326zM280.206 77.03l17.922 17.547a6.04 6.04 0 0 1 0 8.671l-80.81 79.121a6.36 6.36 0 0 1-8.856 0l-57.354-56.155a1.59 1.59 0 0 0-2.214 0l-57.353 56.155a6.36 6.36 0 0 1-8.856 0L1.872 103.247a6.04 6.04 0 0 1 0-8.671l17.922-17.547a6.36 6.36 0 0 1 8.856 0l57.355 56.155a1.59 1.59 0 0 0 2.214 0l57.352-56.155a6.36 6.36 0 0 1 8.856 0l57.355 56.156a1.59 1.59 0 0 0 2.214 0L271.35 77.03a6.36 6.36 0 0 1 8.856 0z" fill="#3b99fc"/></svg>
